<?xml version="1.0" standalone="no"?>
<!DOCTYPE svg PUBLIC "-//W3C//DTD SVG 20010904//EN"
 "http://www.w3.org/TR/2001/REC-SVG-20010904/DTD/svg10.dtd">
<svg version="1.0" xmlns="http://www.w3.org/2000/svg"
 width="590.000000pt" height="590.000000pt" viewBox="0 0 590.000000 590.000000"
 preserveAspectRatio="xMidYMid meet">
<metadata>
Created by potrace 1.16, written by Peter Selinger 2001-2019
</metadata>
<g transform="translate(0.000000,590.000000) scale(0.100000,-0.100000)"
fill="#000000" stroke="none">
<path d="M2820 5604 c-36 -14 -92 -36 -125 -49 -92 -35 -174 -75 -241 -117
-34 -21 -64 -38 -67 -38 -3 0 -7 23 -9 52 -2 28 -8 53 -14 55 -6 2 -51 -32
-99 -77 -49 -44 -93 -80 -99 -81 -6 0 -45 -2 -86 -3 -118 -3 -211 -63 -264
-172 l-28 -57 -112 6 c-92 5 -116 3 -143 -11 -45 -24 -163 -131 -354 -321
-159 -159 -167 -169 -188 -233 -32 -98 -64 -138 -236 -302 -86 -82 -176 -177
-200 -211 -91 -127 -141 -269 -181 -515 -13 -85 -31 -195 -39 -244 -8 -49 -15
-98 -15 -109 0 -10 29 -78 64 -151 90 -185 161 -417 154 -503 -2 -32 -7 -39
-28 -42 -37 -5 -41 -18 -34 -106 6 -76 27 -140 94 -290 150 -334 233 -534 283
-682 14 -43 26 -63 37 -63 36 0 69 -54 93 -152 68 -273 194 -384 441 -387 106
-2 123 -7 207 -68 67 -48 140 -74 227 -80 68 -6 86 -13 232 -89 87 -45 188
-102 225 -125 49 -31 69 -39 78 -30 22 22 37 12 37 -24 0 -19 3 -35 8 -35 4 0
79 7 167 15 88 8 211 15 273 15 112 0 286 -21 336 -40 18 -6 42 -7 71 0 61 14
139 -3 238 -51 92 -45 122 -47 122 -9 0 16 10 30 30 41 28 16 163 49 201 49 9
0 39 -24 67 -52 l51 -53 7 59 c8 73 23 86 101 86 l58 0 0 50 0 50 123 125 c81
82 130 125 144 125 13 0 34 -15 52 -37 17 -20 33 -34 36 -31 10 10 -23 78 -55
114 -16 19 -30 38 -30 43 0 15 94 46 143 46 38 0 47 3 47 18 0 24 56 47 114
47 58 0 85 23 97 82 7 38 24 67 87 143 114 138 193 256 277 418 83 159 169
357 155 357 -16 0 -133 -124 -162 -172 -33 -54 -59 -72 -88 -63 -14 5 -22 1
-26 -12 -3 -10 -12 -31 -19 -48 l-14 -30 0 33 c-1 17 -4 32 -7 32 -3 0 -45
-31 -93 -68 -301 -239 -826 -610 -914 -647 -37 -15 -82 -3 -98 27 -10 18 -12
18 -45 -12 -45 -39 -73 -40 -80 0 -6 27 -10 30 -45 30 -33 0 -41 -4 -54 -31
-15 -29 -18 -30 -34 -15 -25 23 -31 20 -31 -14 0 -30 -13 -40 -26 -18 -5 8
-14 2 -29 -16 l-22 -27 -29 42 -29 43 -3 -33 c-2 -23 -7 -31 -18 -27 -10 4
-14 -2 -14 -22 -1 -20 -14 -39 -51 -71 -49 -42 -54 -44 -136 -52 -48 -4 -125
-15 -172 -25 l-86 -17 -155 31 c-191 38 -256 48 -440 67 -177 18 -199 22 -275
47 -68 23 -235 106 -235 117 0 4 11 18 25 31 36 33 34 55 -2 37 -16 -8 -46
-17 -68 -20 -39 -6 -43 -4 -106 56 -35 34 -157 148 -269 253 -224 210 -466
451 -529 528 -48 60 -86 133 -155 302 l-53 129 -34 0 c-29 0 -37 6 -53 37 -17
31 -18 40 -8 63 10 22 18 26 38 22 25 -4 26 -3 21 32 -3 20 -16 111 -28 203
l-23 167 37 85 c32 74 39 102 52 233 8 81 19 180 25 218 5 39 14 120 20 180
22 209 63 353 151 525 94 184 210 327 451 555 220 208 231 217 373 300 55 32
148 86 206 120 175 103 249 140 374 187 186 70 350 98 580 98 115 0 117 0 146
29 26 27 29 36 29 95 l0 66 -34 0 c-24 0 -48 11 -84 41 -65 51 -99 55 -182 23z"/>
<path d="M3618 5430 c-28 -28 -34 -30 -74 -24 -137 20 -233 -40 -210 -131 24
-93 215 -194 369 -195 40 0 64 -9 145 -57 136 -80 384 -246 599 -401 274 -197
281 -202 307 -202 13 0 48 11 77 24 29 14 56 23 61 20 4 -3 8 -31 8 -63 0
-109 77 -303 139 -349 19 -15 54 -45 77 -67 55 -53 71 -122 54 -225 l-12 -69
44 -83 c30 -59 66 -106 121 -162 64 -66 77 -84 77 -111 0 -46 22 -62 56 -40
l27 17 -7 -33 c-8 -45 -20 -325 -13 -319 2 3 12 64 21 136 9 72 30 182 46 244
17 62 28 115 26 118 -3 2 -15 -12 -28 -32 -20 -31 -45 -52 -54 -44 -1 2 -7 84
-13 183 -6 99 -18 232 -26 295 -9 63 -19 142 -23 176 -8 57 -24 86 -280 497
-296 472 -337 526 -492 640 -160 117 -366 214 -559 263 -80 21 -117 24 -263
24 l-170 0 -30 -30z"/>
<path d="M2810 3552 c-103 -54 -106 -56 -178 -153 -40 -55 -76 -99 -80 -99 -4
0 -51 26 -104 59 l-96 58 -112 -112 c-62 -61 -116 -118 -120 -126 -11 -20
-123 -510 -117 -515 2 -2 427 -3 945 -2 l941 3 -31 70 c-17 38 -59 104 -93
146 -35 43 -66 88 -70 101 -7 25 -90 266 -108 312 -6 16 -38 66 -71 110 -34
44 -63 84 -66 88 -8 10 -203 -70 -215 -89 -34 -51 -26 -56 -159 80 -76 77
-132 126 -143 126 -10 -1 -65 -27 -123 -57z m297 -115 l162 -164 17 -149 17
-149 -58 -152 -58 -153 -38 0 c-21 0 -40 4 -43 9 -11 18 -9 77 4 123 14 47 14
49 -25 128 -21 44 -42 80 -45 80 -3 0 -16 -7 -29 -16 -23 -16 -27 -15 -112 27
l-89 43 -30 -23 c-22 -16 -39 -21 -58 -17 -26 6 -29 2 -61 -71 l-34 -77 21
-95 c11 -53 17 -100 13 -104 -5 -5 -24 -7 -42 -5 l-34 3 -22 133 -23 133 85
111 85 110 2 137 c1 168 2 189 8 193 12 7 216 107 220 107 3 1 78 -72 167
-162z m400 -42 c50 -68 67 -104 115 -240 31 -88 60 -173 65 -189 7 -21 2 -65
-17 -160 l-26 -131 -30 0 c-27 0 -34 9 -95 124 -61 113 -68 131 -73 200 -19
220 -9 192 -103 303 -47 55 -82 103 -78 106 12 12 160 72 171 69 7 -1 38 -38
71 -82z m-1049 -56 c45 -27 82 -54 82 -59 0 -6 -20 -37 -44 -70 -32 -43 -47
-75 -52 -108 -5 -34 -35 -96 -110 -225 -57 -98 -104 -182 -104 -187 0 -15 -31
-20 -117 -20 -78 0 -85 2 -81 18 3 10 71 116 151 234 138 204 147 220 152 275
10 99 26 193 34 193 4 0 44 -23 89 -51z m642 -468 c10 -25 9 -39 -4 -78 -8
-26 -14 -64 -13 -83 l2 -35 -52 -3 c-48 -3 -54 -1 -64 21 -9 20 -5 35 19 90
26 58 73 116 93 117 4 0 12 -13 19 -29z"/>
<path d="M2153 2403 c433 -2 1141 -2 1575 0 433 1 78 2 -788 2 -866 0 -1221
-1 -787 -2z"/>
</g>
</svg>
